<svg width="514" height="128" viewBox="0 0 514 128" fill="none" xmlns="http://www.w3.org/2000/svg">
<g clip-path="url(#clip0_6086_5)">
<path fill-rule="evenodd" clip-rule="evenodd" d="M374.522 39.9139C394.71 39.9139 407.925 54.6141 407.925 73.8241C407.925 75.7164 407.778 77.8995 407.488 79.6446H353.897C354.624 95.6553 363.772 103.95 375.536 103.95C386.572 103.95 391.51 96.6751 394.269 89.544L407.921 92.7433C404.145 104.822 393.252 115.447 374.952 115.447C353.313 115.447 338.643 100.603 338.643 78.0431C338.643 57.0844 352.295 39.9139 374.515 39.9139H374.522ZM374.228 51.264C363.915 51.264 356.946 58.395 354.62 69.4579H392.818C391.8 59.1239 384.978 51.264 374.228 51.264ZM477.691 39.9139C498.316 39.9139 514 54.7577 514 77.6087C514 100.46 498.316 115.447 477.691 115.447C457.066 115.447 441.382 100.603 441.382 77.6087C441.382 54.6141 456.922 39.9139 477.691 39.9139ZM477.691 51.702C465.2 51.702 456.775 60.869 456.775 77.6087C456.775 94.3483 465.2 103.515 477.691 103.515C490.182 103.515 498.459 94.492 498.459 77.6087C498.459 60.7254 490.182 51.702 477.691 51.702ZM207.793 94.7792L240.035 12.5494H259.786V114.424H245.12V35.1096L213.895 114.427H200.967L169.742 36.8546V114.427H155.073V12.553H174.823L207.793 94.7828V94.7792ZM286.316 114.427H271.356V40.9336H286.316V114.431V114.427ZM337.969 55.0485C322.138 55.0485 312.843 63.0521 312.843 83.2819V114.427H297.883V40.9336H312.843V61.8923C317.054 49.0844 325.334 39.9139 337.679 39.9139H337.969V55.0521V55.0485ZM432.133 114.427H417.173V12.553H432.133V114.427ZM286.75 30.8905H271.209V15.3178H286.75V30.8905ZM84.7762 18.2945L100.324 4.25857C101.245 3.42554 102.714 4.08263 102.714 5.325V126.56C102.714 127.803 101.245 128.46 100.324 127.627L84.7762 113.591C84.4752 113.318 84.3032 112.93 84.3032 112.524V19.3609C84.3032 18.9552 84.4752 18.5674 84.7762 18.2945ZM56.6763 43.6661L72.2241 29.6302C73.145 28.7972 74.6141 29.4543 74.6141 30.6966V101.192C74.6141 102.435 73.145 103.092 72.2241 102.259L56.6763 88.2227C56.3754 87.9498 56.2034 87.562 56.2034 87.1562V44.7325C56.2034 44.3268 56.3754 43.939 56.6763 43.6661ZM17.9378 14.4058L2.39003 0.369885C1.46913 -0.459559 0 0.193942 0 1.43631V91.6051C0 92.8474 1.46913 93.5045 2.39003 92.6715L17.9378 78.6356C18.2388 78.3627 18.4108 77.9749 18.4108 77.5692V15.4722C18.4108 15.0665 18.2388 14.6787 17.9378 14.4058ZM46.0377 39.7738L30.4899 25.7379C29.569 24.9049 28.0999 25.562 28.0999 26.8044V66.237C28.0999 67.4794 29.569 68.1365 30.4899 67.3035L46.0377 53.2676C46.3387 52.9947 46.5107 52.6069 46.5107 52.2011V40.8403C46.5107 40.4345 46.3387 40.0467 46.0377 39.7738Z" fill="#FEFEFE"/>
</g>
<defs>
<clipPath id="clip0_6086_5">
<rect width="514" height="128" fill="white"/>
</clipPath>
</defs>
</svg>
